<svg version="1.1" id="Layer_1" xmlns="http://www.w3.org/2000/svg" xmlns:xlink="http://www.w3.org/1999/xlink" x="0px" y="0px"
	 width="100%" viewBox="0 0 292 292" enable-background="new 0 0 292 292" xml:space="preserve">
<path fill="#FFFFFF" opacity="1.000000" stroke="none" 
	d="
M1.000001,127.000000 
	C1.000000,85.037521 1.000000,43.075047 1.000000,1.063053 
	C98.333336,1.063053 195.666672,1.063053 293.000000,1.063053 
	C293.000000,24.771631 293.000000,48.417156 292.733307,72.543671 
	C292.293976,73.067993 292.121368,73.111328 291.487793,73.086121 
	C245.124329,73.017593 199.221802,73.017593 153.401337,73.017593 
	C153.401337,88.591698 153.401337,103.621460 153.401337,118.839699 
	C165.117416,118.839699 176.438461,118.603752 187.740875,118.959869 
	C192.051849,119.095695 194.028000,117.630898 195.993134,113.871910 
	C206.806839,93.187057 227.448303,90.393471 244.151779,96.757790 
	C252.871262,100.080063 258.215881,107.800964 257.956482,116.251122 
	C257.670441,125.568375 252.788467,132.090668 244.239594,135.194839 
	C239.345825,136.971832 233.923904,137.789978 228.692856,138.034027 
	C219.263672,138.473907 209.799240,138.158371 200.132355,138.158371 
	C200.132355,145.371674 200.132355,152.084610 200.132355,159.165268 
	C209.053543,159.165268 217.692810,159.442719 226.306137,159.088638 
	C235.243301,158.721252 244.384644,158.765457 253.032608,156.826965 
	C273.674042,152.200073 287.967621,140.356339 291.997833,118.463074 
	C292.095612,117.931885 292.655609,117.485786 293.000000,117.000000 
	C293.000000,175.621231 293.000000,234.242447 293.000000,292.931824 
	C195.787537,292.931824 98.575020,292.931824 1.000000,292.931824 
	C1.000000,260.980011 1.000000,228.958664 1.348808,196.459076 
	C16.843729,215.465546 37.451694,223.486694 61.411293,223.779266 
	C86.372406,224.084091 111.340126,223.852539 136.304947,223.834106 
	C137.732056,223.833054 139.159027,223.638809 140.548309,223.537231 
	C140.548309,202.691238 140.548309,182.305252 140.548309,161.454971 
	C129.468262,161.454971 118.680412,161.358856 107.901093,161.617920 
	C106.926086,161.641342 105.399261,163.846298 105.158043,165.219040 
	C103.473297,174.806885 100.105255,183.609818 92.626434,190.092422 
	C79.672470,201.320862 64.674049,204.811523 47.987926,200.298615 
	C48.004280,194.030029 47.900745,188.203384 48.049030,182.383163 
	C48.121891,179.523315 48.661388,176.675354 49.324459,173.805939 
	C54.234070,170.250839 58.808933,166.711823 63.738037,163.165436 
	C66.370354,162.385193 68.648422,161.612350 71.322456,160.877930 
	C81.714348,160.528641 87.587257,154.895325 90.924019,145.534088 
	C93.309540,140.184708 94.391365,135.199402 91.456856,130.094910 
	C93.853058,124.661789 90.391205,120.734291 88.180008,116.431839 
	C88.180008,120.292183 88.180008,124.152519 88.064575,128.226013 
	C87.949150,128.439148 87.816513,128.905441 87.504410,128.694489 
	C86.303680,122.308594 84.597916,116.525322 80.001648,112.115494 
	C79.787560,113.950745 80.225670,115.498779 80.554459,117.069702 
	C82.277939,125.304443 81.638237,126.520531 74.364441,130.744019 
	C60.995586,138.506577 50.941574,148.795944 48.480595,164.756409 
	C48.021648,161.721054 47.907207,158.907715 47.851929,155.671570 
	C49.104202,150.226730 50.297318,145.204742 51.694077,139.922836 
	C54.365665,135.553329 56.079769,130.611160 59.480625,127.531891 
	C64.414978,123.064117 63.836033,119.179932 60.745209,114.504555 
	C60.567646,114.235954 60.309952,114.020332 60.076027,113.432243 
	C59.144249,111.033134 58.226002,108.981834 57.241089,106.549225 
	C55.731930,102.115028 54.289433,98.062141 52.846962,93.625443 
	C50.989334,87.026978 49.131672,80.812325 47.005238,73.698502 
	C44.622223,81.409058 42.548443,88.119057 40.294796,95.118965 
	C38.737274,99.270576 37.359623,103.132278 35.721836,107.230232 
	C33.789619,111.422440 31.947271,115.319733 30.551407,119.370865 
	C30.143887,120.553589 30.618053,122.432449 31.356266,123.551407 
	C35.046417,129.144730 38.958805,134.591461 42.880913,140.470169 
	C44.048527,146.254303 45.128269,151.658020 46.171452,157.485825 
	C45.779606,160.248779 45.424320,162.587631 44.924030,164.637573 
	C44.501209,163.582565 44.223392,162.816483 44.112946,161.778336 
	C43.839130,159.582031 43.644218,157.558823 42.917076,155.749496 
	C37.934978,143.352722 28.517677,135.203903 16.851055,129.506439 
	C13.766148,127.999893 12.529902,126.146347 12.943667,122.994858 
	C13.492369,118.815598 14.159142,114.651833 14.775178,110.481415 
	C14.321415,110.314049 13.867651,110.146683 13.413888,109.979324 
	C11.002910,116.313171 8.591932,122.647018 6.112519,128.524994 
	C6.044084,124.259155 6.044084,120.449203 6.044084,116.639259 
	C5.741820,116.593025 5.439557,116.546799 5.137293,116.500565 
	C3.758196,120.000381 2.379099,123.500191 1.000001,127.000000 
M157.687622,223.845459 
	C177.724197,223.845459 197.760757,223.845459 219.033539,223.845459 
	C201.219696,205.941513 190.530670,185.799500 187.749802,161.740051 
	C176.120605,161.740051 164.703156,161.740051 152.995056,161.740051 
	C152.995056,181.658752 153.051453,201.286072 152.937180,220.912384 
	C152.919022,224.031845 154.624542,223.969391 157.687622,223.845459 
M103.128029,118.826950 
	C115.558525,118.826950 127.989021,118.826950 140.612915,118.826950 
	C140.612915,103.314178 140.612915,88.408379 140.612915,73.290909 
	C118.891129,73.290909 97.403374,73.290909 75.282982,73.290909 
	C88.812874,83.899681 95.373604,98.049171 100.062767,113.352509 
	C100.625320,115.188446 101.527527,116.920311 103.128029,118.826950 
M158.686737,122.382446 
	C156.902939,122.382446 155.119141,122.382446 153.306549,122.382446 
	C153.306549,125.818581 153.306549,128.701233 153.306549,131.702881 
	C165.547638,131.702881 177.443741,131.702881 189.599213,131.702881 
	C190.420563,128.670425 191.211029,125.751976 192.123611,122.382713 
	C180.848358,122.382713 170.245377,122.382713 158.686737,122.382446 
M126.493774,131.890091 
	C131.226089,131.890091 135.958405,131.890091 140.567810,131.890091 
	C140.567810,128.306091 140.567810,125.562416 140.567810,122.769028 
	C127.767357,122.769028 115.294373,122.769028 102.423866,122.769028 
	C103.068810,126.068443 103.624092,128.909195 104.206764,131.890060 
	C111.578430,131.890060 118.537033,131.890060 126.493774,131.890091 
M105.091774,142.405258 
	C105.770561,143.143188 106.441666,144.515930 107.129280,144.524246 
	C118.218727,144.658417 129.310272,144.619064 140.644165,144.619064 
	C140.644165,141.357346 140.644165,138.631470 140.644165,135.738083 
	C128.562744,135.738083 116.746269,135.738083 104.761719,135.738083 
	C104.869514,137.940460 104.958305,139.754532 105.091774,142.405258 
M125.495522,157.642731 
	C130.559540,157.642731 135.623566,157.642731 140.658905,157.642731 
	C140.658905,154.139252 140.658905,151.533127 140.658905,148.642517 
	C129.027786,148.642517 117.641541,148.642517 106.141479,148.642517 
	C106.141479,151.717865 106.141479,154.572769 106.141479,157.642487 
	C112.534012,157.642487 118.516083,157.642487 125.495522,157.642731 
M166.511444,144.641129 
	C173.597885,144.641129 180.684326,144.641129 187.902618,144.641129 
	C188.288300,141.276886 188.600510,138.553391 188.928024,135.696487 
	C176.683701,135.696487 164.958481,135.696487 153.278137,135.696487 
	C153.278137,138.786850 153.278137,141.530350 153.278137,144.640869 
	C157.571030,144.640869 161.544006,144.640869 166.511444,144.641129 
M180.380371,157.647324 
	C182.793274,157.647324 185.206161,157.647324 187.882904,157.647324 
	C187.679367,154.108612 187.522446,151.380127 187.368332,148.700470 
	C175.627930,148.700470 164.426544,148.700470 153.269592,148.700470 
	C153.269592,151.791916 153.269592,154.530167 153.269592,157.647095 
	C162.196030,157.647095 170.804489,157.647095 180.380371,157.647324 
z"/>
<path fill="#2F3293" opacity="1.000000" stroke="none" 
	d="
M293.000000,116.600006 
	C292.655609,117.485786 292.095612,117.931885 291.997833,118.463074 
	C287.967621,140.356339 273.674042,152.200073 253.032608,156.826965 
	C244.384644,158.765457 235.243301,158.721252 226.306137,159.088638 
	C217.692810,159.442719 209.053543,159.165268 200.132355,159.165268 
	C200.132355,152.084610 200.132355,145.371674 200.132355,138.158371 
	C209.799240,138.158371 219.263672,138.473907 228.692856,138.034027 
	C233.923904,137.789978 239.345825,136.971832 244.239594,135.194839 
	C252.788467,132.090668 257.670441,125.568375 257.956482,116.251122 
	C258.215881,107.800964 252.871262,100.080063 244.151779,96.757790 
	C227.448303,90.393471 206.806839,93.187057 195.993134,113.871910 
	C194.028000,117.630898 192.051849,119.095695 187.740875,118.959869 
	C176.438461,118.603752 165.117416,118.839699 153.401337,118.839699 
	C153.401337,103.621460 153.401337,88.591698 153.401337,73.017593 
	C199.221802,73.017593 245.124329,73.017593 291.506592,73.544235 
	C291.992645,85.343346 291.957489,96.616150 292.049408,107.887917 
	C292.063354,109.594406 292.668396,111.296089 293.000000,113.000000 
	C293.000000,114.066673 293.000000,115.133339 293.000000,116.600006 
z"/>
<path fill="#313494" opacity="1.000000" stroke="none" 
	d="
M47.971802,200.743210 
	C64.674049,204.811523 79.672470,201.320862 92.626434,190.092422 
	C100.105255,183.609818 103.473297,174.806885 105.158043,165.219040 
	C105.399261,163.846298 106.926086,161.641342 107.901093,161.617920 
	C118.680412,161.358856 129.468262,161.454971 140.548309,161.454971 
	C140.548309,182.305252 140.548309,202.691238 140.548309,223.537231 
	C139.159027,223.638809 137.732056,223.833054 136.304947,223.834106 
	C111.340126,223.852539 86.372406,224.084091 61.411293,223.779266 
	C37.451694,223.486694 16.843729,215.465546 1.348808,195.990417 
	C1.000000,195.555557 1.000000,195.111099 1.272604,194.142517 
	C6.170802,188.692032 10.796396,183.765671 15.602557,178.647018 
	C23.877012,188.875763 33.259331,196.802322 46.181023,200.078583 
	C46.942093,200.386520 47.456947,200.564865 47.971802,200.743210 
z"/>
<path fill="#FDFEFE" opacity="1.000000" stroke="none" 
	d="
M45.934803,199.948990 
	C33.259331,196.802322 23.877012,188.875763 15.602557,178.647018 
	C10.796396,183.765671 6.170802,188.692032 1.272604,193.809189 
	C1.000000,176.979111 1.000000,159.958206 1.315585,142.633392 
	C4.761709,147.212448 7.892248,152.095413 11.014132,156.986710 
	C11.005476,156.995041 11.017045,156.977417 11.213696,157.281128 
	C14.292967,158.423584 17.175585,159.262299 20.319294,160.204376 
	C20.950674,160.344925 21.320961,160.382126 22.009483,160.598602 
	C25.122318,161.583023 27.916914,162.388153 30.959072,163.434570 
	C35.816170,167.392105 40.425705,171.108368 45.400688,175.074493 
	C45.822357,183.532578 45.878578,191.740784 45.934803,199.948990 
z"/>
<path fill="#A3C35C" opacity="1.000000" stroke="none" 
	d="
M11.022785,156.978378 
	C7.892248,152.095413 4.761709,147.212448 1.315585,142.164734 
	C1.000000,140.933334 1.000000,139.866653 1.339123,138.356766 
	C3.394254,135.599152 5.110261,133.284760 6.891556,131.298004 
	C7.657285,132.420242 8.357728,133.214874 9.032692,134.405884 
	C6.201641,141.481232 5.276334,147.996918 10.382318,154.153748 
	C10.931960,154.816513 10.825107,156.023727 11.022785,156.978378 
z"/>
<path fill="#1FA057" opacity="1.000000" stroke="none" 
	d="
M6.826271,130.970367 
	C5.110261,133.284760 3.394254,135.599152 1.339123,137.956772 
	C1.000000,134.638718 1.000000,131.277420 1.000001,127.458069 
	C2.379099,123.500191 3.758196,120.000381 5.137293,116.500565 
	C5.439557,116.546799 5.741820,116.593025 6.044084,116.639259 
	C6.044084,120.449203 6.044084,124.259155 6.103726,128.797150 
	C6.384337,130.006927 6.605305,130.488647 6.826271,130.970367 
z"/>
<path fill="#6365AE" opacity="1.000000" stroke="none" 
	d="
M293.000000,112.531342 
	C292.668396,111.296089 292.063354,109.594406 292.049408,107.887917 
	C291.957489,96.616150 291.992645,85.343346 291.967529,73.612770 
	C292.121368,73.111328 292.293976,73.067993 292.733307,73.012329 
	C293.000000,86.020897 293.000000,99.041786 293.000000,112.531342 
z"/>
<path fill="#313494" opacity="1.000000" stroke="none" 
	d="
M157.211319,223.845337 
	C154.624542,223.969391 152.919022,224.031845 152.937180,220.912384 
	C153.051453,201.286072 152.995056,181.658752 152.995056,161.740051 
	C164.703156,161.740051 176.120605,161.740051 187.749802,161.740051 
	C190.530670,185.799500 201.219696,205.941513 219.033539,223.845459 
	C197.760757,223.845459 177.724197,223.845459 157.211319,223.845337 
z"/>
<path fill="#313493" opacity="1.000000" stroke="none" 
	d="
M102.700165,118.763687 
	C101.527527,116.920311 100.625320,115.188446 100.062767,113.352509 
	C95.373604,98.049171 88.812874,83.899681 75.282982,73.290909 
	C97.403374,73.290909 118.891129,73.290909 140.612915,73.290909 
	C140.612915,88.408379 140.612915,103.314178 140.612915,118.826950 
	C127.989021,118.826950 115.558525,118.826950 102.700165,118.763687 
z"/>
<path fill="#3E419B" opacity="1.000000" stroke="none" 
	d="
M159.164581,122.382584 
	C170.245377,122.382713 180.848358,122.382713 192.123611,122.382713 
	C191.211029,125.751976 190.420563,128.670425 189.599213,131.702881 
	C177.443741,131.702881 165.547638,131.702881 153.306549,131.702881 
	C153.306549,128.701233 153.306549,125.818581 153.306549,122.382446 
	C155.119141,122.382446 156.902939,122.382446 159.164581,122.382584 
z"/>
<path fill="#3F429B" opacity="1.000000" stroke="none" 
	d="
M125.994705,131.890076 
	C118.537033,131.890060 111.578430,131.890060 104.206764,131.890060 
	C103.624092,128.909195 103.068810,126.068443 102.423866,122.769028 
	C115.294373,122.769028 127.767357,122.769028 140.567810,122.769028 
	C140.567810,125.562416 140.567810,128.306091 140.567810,131.890091 
	C135.958405,131.890091 131.226089,131.890091 125.994705,131.890076 
z"/>
<path fill="#43469D" opacity="1.000000" stroke="none" 
	d="
M105.069435,141.986938 
	C104.958305,139.754532 104.869514,137.940460 104.761719,135.738083 
	C116.746269,135.738083 128.562744,135.738083 140.644165,135.738083 
	C140.644165,138.631470 140.644165,141.357346 140.644165,144.619064 
	C129.310272,144.619064 118.218727,144.658417 107.129280,144.524246 
	C106.441666,144.515930 105.770561,143.143188 105.069435,141.986938 
z"/>
<path fill="#43469D" opacity="1.000000" stroke="none" 
	d="
M124.996841,157.642609 
	C118.516083,157.642487 112.534012,157.642487 106.141479,157.642487 
	C106.141479,154.572769 106.141479,151.717865 106.141479,148.642517 
	C117.641541,148.642517 129.027786,148.642517 140.658905,148.642517 
	C140.658905,151.533127 140.658905,154.139252 140.658905,157.642731 
	C135.623566,157.642731 130.559540,157.642731 124.996841,157.642609 
z"/>
<path fill="#43469D" opacity="1.000000" stroke="none" 
	d="
M166.014206,144.640991 
	C161.544006,144.640869 157.571030,144.640869 153.278137,144.640869 
	C153.278137,141.530350 153.278137,138.786850 153.278137,135.696487 
	C164.958481,135.696487 176.683701,135.696487 188.928024,135.696487 
	C188.600510,138.553391 188.288300,141.276886 187.902618,144.641129 
	C180.684326,144.641129 173.597885,144.641129 166.014206,144.640991 
z"/>
<path fill="#44479E" opacity="1.000000" stroke="none" 
	d="
M179.896667,157.647217 
	C170.804489,157.647095 162.196030,157.647095 153.269592,157.647095 
	C153.269592,154.530167 153.269592,151.791916 153.269592,148.700470 
	C164.426544,148.700470 175.627930,148.700470 187.368332,148.700470 
	C187.522446,151.380127 187.679367,154.108612 187.882904,157.647324 
	C185.206161,157.647324 182.793274,157.647324 179.896667,157.647217 
z"/>
<path fill="#AF326C" opacity="1.000000" stroke="none" 
	d="
M48.825100,164.978439 
	C50.941574,148.795944 60.995586,138.506577 74.364441,130.744019 
	C81.638237,126.520531 82.277939,125.304443 80.554459,117.069702 
	C80.225670,115.498779 79.787560,113.950745 80.001648,112.115494 
	C84.597916,116.525322 86.303680,122.308594 87.492188,129.026703 
	C87.188652,130.953705 86.585251,132.337555 85.651230,133.765411 
	C84.496445,134.092255 83.672264,134.375092 82.497658,134.729980 
	C80.615547,135.469757 79.083862,136.137482 77.203812,136.838806 
	C72.899033,139.222809 68.942612,141.573227 64.684570,144.042053 
	C63.267220,145.187088 62.151485,146.213715 60.766621,147.337280 
	C59.932396,148.210587 59.367298,148.986923 58.529068,149.943787 
	C57.125996,151.696686 55.996059,153.269043 54.625099,155.090973 
	C52.611259,158.849503 50.838455,162.358505 49.012566,165.643326 
	C48.959484,165.419159 48.825100,164.978439 48.825100,164.978439 
z"/>
<path fill="#AE306B" opacity="1.000000" stroke="none" 
	d="
M6.891559,131.298004 
	C6.605305,130.488647 6.384337,130.006927 6.172162,129.253036 
	C8.591932,122.647018 11.002910,116.313171 13.413888,109.979324 
	C13.867651,110.146683 14.321415,110.314049 14.775178,110.481415 
	C14.159142,114.651833 13.492369,118.815598 12.943667,122.994858 
	C12.529902,126.146347 13.766148,127.999893 16.851055,129.506439 
	C28.517677,135.203903 37.934978,143.352722 42.917076,155.749496 
	C43.644218,157.558823 43.839130,159.582031 43.795872,161.644547 
	C41.942417,159.493561 40.573402,157.204300 39.100594,154.599945 
	C38.048561,153.108185 37.100330,151.931534 36.023495,150.498901 
	C35.250191,149.601364 34.605492,148.959839 33.691925,148.120636 
	C32.313686,146.863480 31.204319,145.804016 29.910725,144.468842 
	C25.506956,141.766830 21.287413,139.340561 16.833128,136.665176 
	C15.077503,135.931549 13.556621,135.447006 12.053695,134.938766 
	C12.071652,134.915070 12.040256,134.864563 11.929085,134.703705 
	C11.612138,134.339355 11.370481,134.278717 10.762352,134.256424 
	C9.973898,134.104462 9.516033,134.056976 9.058169,134.009491 
	C8.357728,133.214874 7.657285,132.420242 6.891559,131.298004 
z"/>
<path fill="#EC3534" opacity="1.000000" stroke="none" 
	d="
M42.793037,140.089737 
	C38.958805,134.591461 35.046417,129.144730 31.356266,123.551407 
	C30.618053,122.432449 30.143887,120.553589 30.551407,119.370865 
	C31.947271,115.319733 33.789619,111.422440 36.059441,107.232475 
	C37.107315,107.001129 37.557449,107.003784 37.849266,107.322128 
	C36.797688,109.367020 35.476215,111.017448 35.139339,112.848976 
	C34.840816,114.471977 35.636929,116.296310 35.954834,118.360100 
	C35.958897,119.126244 35.957932,119.564064 35.719822,120.199234 
	C36.316746,121.601608 37.150810,122.806641 38.290203,124.164917 
	C40.388779,125.558144 42.182030,126.798119 44.067196,128.414673 
	C49.179630,131.197906 51.974342,130.480270 55.128574,125.741837 
	C55.837368,124.987244 56.422832,124.497025 57.347069,123.955170 
	C58.134647,122.269417 58.583458,120.635307 59.028915,118.628754 
	C59.028275,117.512169 59.030998,116.768021 59.288982,115.822891 
	C59.726013,115.007950 59.907780,114.393997 60.089546,113.780052 
	C60.309952,114.020332 60.567646,114.235954 60.745209,114.504555 
	C63.836033,119.179932 64.414978,123.064117 59.480625,127.531891 
	C56.079769,130.611160 54.365665,135.553329 51.284645,139.853333 
	C48.045391,140.059082 45.419216,140.074417 42.793037,140.089737 
z"/>
<path fill="#CBCF5C" opacity="1.000000" stroke="none" 
	d="
M82.848091,134.657944 
	C83.672264,134.375092 84.496445,134.092255 85.794434,134.112656 
	C87.785439,138.244858 89.302628,142.073807 90.819817,145.902756 
	C87.587257,154.895325 81.714348,160.528641 71.091637,160.635620 
	C64.834045,158.743881 60.626026,155.566193 58.802200,149.763245 
	C59.367298,148.986923 59.932396,148.210587 60.804161,147.670334 
	C66.132378,158.377182 75.052528,160.305176 82.892433,152.614258 
	C87.432503,148.160461 87.416664,141.748047 82.848091,134.657944 
z"/>
<path fill="#EB3232" opacity="1.000000" stroke="none" 
	d="
M38.007587,107.006439 
	C37.557449,107.003784 37.107315,107.001129 36.319572,106.996223 
	C37.359623,103.132278 38.737274,99.270576 40.777927,95.163544 
	C45.242931,94.615227 49.044933,94.312248 52.846939,94.009262 
	C54.289433,98.062141 55.731930,102.115028 56.829803,106.568939 
	C55.662724,106.974358 54.840267,106.978745 54.012554,106.986984 
	C54.007301,106.990837 54.016148,106.978073 53.944851,106.605515 
	C49.404705,102.687584 43.253059,103.038765 40.989433,106.982422 
	C41.000656,106.995720 40.974632,106.977356 40.603931,106.981018 
	C39.491348,106.991936 38.749470,106.999191 38.007587,107.006439 
z"/>
<path fill="#E13C34" opacity="1.000000" stroke="none" 
	d="
M52.846966,93.625443 
	C49.044933,94.312248 45.242931,94.615227 40.957794,94.873634 
	C42.548443,88.119057 44.622223,81.409058 47.005238,73.698502 
	C49.131672,80.812325 50.989334,87.026978 52.846966,93.625443 
z"/>
<path fill="#179754" opacity="1.000000" stroke="none" 
	d="
M39.204391,154.915039 
	C40.573402,157.204300 41.942417,159.493561 43.628502,161.916611 
	C44.223392,162.816483 44.501209,163.582565 44.898689,165.045624 
	C45.023983,168.769958 45.029613,171.797287 45.035240,174.824631 
	C40.425705,171.108368 35.816170,167.392105 31.188444,163.164795 
	C33.848301,160.074173 36.526344,157.494614 39.204391,154.915039 
z"/>
<path fill="#149653" opacity="1.000000" stroke="none" 
	d="
M49.065651,165.867493 
	C50.838455,162.358505 52.611259,158.849503 54.940853,155.251083 
	C58.126358,157.832047 60.755077,160.502426 63.383797,163.172821 
	C58.808933,166.711823 54.234070,170.250839 49.328846,173.368225 
	C49.020870,170.586899 49.043259,168.227203 49.065651,165.867493 
z"/>
<path fill="#069D55" opacity="1.000000" stroke="none" 
	d="
M49.012566,165.643326 
	C49.043259,168.227203 49.020870,170.586899 48.994095,173.384308 
	C48.661388,176.675354 48.121891,179.523315 48.049030,182.383163 
	C47.900745,188.203384 48.004280,194.030029 47.987926,200.298615 
	C47.456947,200.564865 46.942093,200.386520 46.181023,200.078583 
	C45.878578,191.740784 45.822357,183.532578 45.400688,175.074493 
	C45.029613,171.797287 45.023983,168.769958 45.043694,165.334549 
	C45.424320,162.587631 45.779606,160.248779 46.383888,157.387604 
	C47.019512,156.608307 47.406139,156.351349 47.792763,156.094391 
	C47.907207,158.907715 48.021648,161.721054 48.480595,164.756409 
	C48.825100,164.978439 48.959484,165.419159 49.012566,165.643326 
z"/>
<path fill="#DB4438" opacity="1.000000" stroke="none" 
	d="
M47.851925,155.671570 
	C47.406139,156.351349 47.019512,156.608307 46.420448,156.963501 
	C45.128269,151.658020 44.048527,146.254303 42.880913,140.470169 
	C45.419216,140.074417 48.045391,140.059082 51.081001,140.113251 
	C50.297318,145.204742 49.104202,150.226730 47.851925,155.671570 
z"/>
<path fill="#95BF59" opacity="1.000000" stroke="none" 
	d="
M63.738045,163.165436 
	C60.755077,160.502426 58.126358,157.832047 55.181885,155.001526 
	C55.996059,153.269043 57.125996,151.696686 58.529064,149.943787 
	C60.626026,155.566193 64.834045,158.743881 70.695679,160.597214 
	C68.648422,161.612350 66.370354,162.385193 63.738045,163.165436 
z"/>
<path fill="#7CB959" opacity="1.000000" stroke="none" 
	d="
M90.924019,145.534088 
	C89.302628,142.073807 87.785439,138.244858 86.125046,134.068665 
	C86.585251,132.337555 87.188652,130.953705 87.804283,129.237640 
	C87.816513,128.905441 87.949150,128.439148 88.313210,128.402328 
	C89.479958,128.976135 90.282646,129.586746 91.085335,130.197372 
	C94.391365,135.199402 93.309540,140.184708 90.924019,145.534088 
z"/>
<path fill="#1A9C61" opacity="1.000000" stroke="none" 
	d="
M91.456856,130.094910 
	C90.282646,129.586746 89.479958,128.976135 88.428635,128.189178 
	C88.180008,124.152519 88.180008,120.292183 88.180008,116.431839 
	C90.391205,120.734291 93.853058,124.661789 91.456856,130.094910 
z"/>
<path fill="#EB4B32" opacity="1.000000" stroke="none" 
	d="
M54.017807,106.983131 
	C54.840267,106.978745 55.662724,106.974358 56.896469,106.950256 
	C58.226002,108.981834 59.144249,111.033134 60.076023,113.432243 
	C59.907780,114.393997 59.726013,115.007950 59.238045,115.461487 
	C57.293835,112.528435 55.655823,109.755783 54.017807,106.983131 
z"/>
<path fill="#D2D15A" opacity="1.000000" stroke="none" 
	d="
M33.960793,148.318314 
	C34.605492,148.959839 35.250191,149.601364 35.864807,150.823669 
	C32.462936,156.515991 27.272997,158.775024 21.691246,160.419342 
	C21.320961,160.382126 20.950674,160.344925 20.088814,159.919647 
	C16.737175,158.680191 13.877110,157.828812 11.017044,156.977417 
	C11.017045,156.977417 11.005476,156.995041 11.014131,156.986710 
	C10.825107,156.023727 10.931960,154.816513 10.382318,154.153748 
	C5.276334,147.996918 6.201641,141.481232 9.032692,134.405884 
	C9.516033,134.056976 9.973898,134.104462 10.882500,134.398697 
	C11.540416,134.810226 11.776089,134.883255 12.040256,134.864563 
	C12.040256,134.864563 12.071652,134.915070 12.005554,135.312164 
	C9.719270,140.134949 7.056320,144.608582 10.156111,149.594727 
	C12.953485,154.094421 16.561172,157.251770 22.523027,157.094360 
	C28.717161,156.930832 31.176714,152.568710 33.960793,148.318314 
z"/>
<path fill="#A3C35C" opacity="1.000000" stroke="none" 
	d="
M22.009483,160.598618 
	C27.272997,158.775024 32.462936,156.515991 35.993408,151.079681 
	C37.100330,151.931534 38.048561,153.108185 39.100594,154.599945 
	C36.526344,157.494614 33.848301,160.074173 30.940884,162.923523 
	C27.916914,162.388153 25.122318,161.583023 22.009483,160.598618 
z"/>
<path fill="#A3C35C" opacity="1.000000" stroke="none" 
	d="
M11.213696,157.281128 
	C13.877110,157.828812 16.737175,158.680191 19.827721,159.816299 
	C17.175585,159.262299 14.292967,158.423584 11.213696,157.281128 
z"/>
<path fill="#F2DB2C" opacity="1.000000" stroke="none" 
	d="
M64.986191,143.923645 
	C68.942612,141.573227 72.899033,139.222809 77.566193,137.000397 
	C81.852989,140.105789 83.162636,143.800171 80.910828,148.010941 
	C79.101242,151.394791 76.066803,153.898163 72.043701,152.731750 
	C67.954262,151.546097 64.676743,148.984497 64.986191,143.923645 
z"/>
<path fill="#EDDA59" opacity="1.000000" stroke="none" 
	d="
M64.684570,144.042053 
	C64.676743,148.984497 67.954262,151.546097 72.043701,152.731750 
	C76.066803,153.898163 79.101242,151.394791 80.910828,148.010941 
	C83.162636,143.800171 81.852989,140.105789 77.914566,136.966812 
	C79.083862,136.137482 80.615547,135.469757 82.497658,134.729980 
	C87.416664,141.748047 87.432503,148.160461 82.892433,152.614258 
	C75.052528,160.305176 66.132378,158.377182 61.073288,147.573364 
	C62.151485,146.213715 63.267220,145.187088 64.684570,144.042053 
z"/>
<path fill="#F2DA2D" opacity="1.000000" stroke="none" 
	d="
M17.067869,136.914276 
	C21.287413,139.340561 25.506956,141.766830 29.880344,144.864410 
	C29.492893,149.842789 27.127234,152.484863 22.779905,152.931503 
	C18.466087,153.374695 15.608748,151.048309 13.740793,147.393539 
	C11.418282,142.849411 14.821569,140.048752 17.067869,136.914276 
z"/>
<path fill="#ECDA59" opacity="1.000000" stroke="none" 
	d="
M16.833128,136.665176 
	C14.821569,140.048752 11.418282,142.849411 13.740793,147.393539 
	C15.608748,151.048309 18.466087,153.374695 22.779905,152.931503 
	C27.127234,152.484863 29.492893,149.842789 30.064571,145.140121 
	C31.204319,145.804016 32.313686,146.863480 33.691925,148.120636 
	C31.176714,152.568710 28.717161,156.930832 22.523027,157.094360 
	C16.561172,157.251770 12.953485,154.094421 10.156111,149.594727 
	C7.056320,144.608582 9.719270,140.134949 11.987597,135.335876 
	C13.556621,135.447006 15.077503,135.931549 16.833128,136.665176 
z"/>
<path fill="#A3C35C" opacity="1.000000" stroke="none" 
	d="
M11.929085,134.703705 
	C11.776089,134.883255 11.540416,134.810226 11.213090,134.503174 
	C11.370481,134.278717 11.612138,134.339355 11.929085,134.703705 
z"/>
<path fill="#EB6834" opacity="1.000000" stroke="none" 
	d="
M54.012558,106.986984 
	C55.655823,109.755783 57.293835,112.528435 58.982780,115.662483 
	C59.030998,116.768021 59.028275,117.512169 58.755234,118.834908 
	C57.992702,120.944603 57.500496,122.475693 57.008293,124.006790 
	C56.422832,124.497025 55.837368,124.987244 54.745903,125.781265 
	C50.818363,126.736061 47.396824,127.387077 43.975285,128.038086 
	C42.182030,126.798119 40.388779,125.558144 38.267395,123.829865 
	C37.278496,122.228340 36.617729,121.115105 35.956963,120.001877 
	C35.957932,119.564064 35.958897,119.126244 35.973976,117.962204 
	C37.650269,113.816444 39.312450,110.396896 40.974632,106.977356 
	C40.974632,106.977356 41.000656,106.995720 41.399353,106.943512 
	C45.870750,106.920219 49.943451,106.949142 54.016148,106.978073 
	C54.016148,106.978073 54.007301,106.990837 54.012558,106.986984 
M54.998528,117.321182 
	C55.430012,112.982063 53.144039,110.132523 49.312244,109.189850 
	C45.851154,108.338379 42.323627,108.950005 40.518559,112.956963 
	C38.442844,117.564713 40.235603,122.852295 44.620579,124.685371 
	C48.707020,126.393639 52.992973,123.680977 54.998528,117.321182 
z"/>
<path fill="#EB4B32" opacity="1.000000" stroke="none" 
	d="
M40.603935,106.981018 
	C39.312450,110.396896 37.650269,113.816444 35.968948,117.633881 
	C35.636929,116.296310 34.840816,114.471977 35.139339,112.848976 
	C35.476215,111.017448 36.797688,109.367020 37.849266,107.322136 
	C38.749470,106.999191 39.491348,106.991936 40.603935,106.981018 
z"/>
<path fill="#EB4B32" opacity="1.000000" stroke="none" 
	d="
M44.067196,128.414673 
	C47.396824,127.387077 50.818363,126.736061 54.622570,126.045624 
	C51.974342,130.480270 49.179630,131.197906 44.067196,128.414673 
z"/>
<path fill="#EB4B32" opacity="1.000000" stroke="none" 
	d="
M57.347061,123.955162 
	C57.500496,122.475693 57.992702,120.944603 58.758591,119.207352 
	C58.583458,120.635307 58.134647,122.269417 57.347061,123.955162 
z"/>
<path fill="#EB4B32" opacity="1.000000" stroke="none" 
	d="
M35.719822,120.199234 
	C36.617729,121.115105 37.278496,122.228340 37.962074,123.676620 
	C37.150810,122.806641 36.316746,121.601608 35.719822,120.199234 
z"/>
<path fill="#EB4B32" opacity="1.000000" stroke="none" 
	d="
M53.944851,106.605515 
	C49.943451,106.949142 45.870750,106.920219 41.388130,106.930206 
	C43.253059,103.038765 49.404705,102.687584 53.944851,106.605515 
z"/>
<path fill="#EC7A38" opacity="1.000000" stroke="none" 
	d="
M54.986435,117.726730 
	C52.992973,123.680977 48.707020,126.393639 44.620579,124.685371 
	C40.235603,122.852295 38.442844,117.564713 40.518559,112.956963 
	C42.323627,108.950005 45.851154,108.338379 49.312244,109.189850 
	C53.144039,110.132523 55.430012,112.982063 54.986435,117.726730 
M41.962448,119.413895 
	C44.319576,120.553772 46.626881,122.366074 49.055138,122.545998 
	C50.245079,122.634171 52.278709,119.882439 52.838535,118.077339 
	C53.875462,114.733879 51.097118,111.262054 47.823544,111.023201 
	C43.625656,110.716904 41.529675,113.302071 41.962448,119.413895 
z"/>
<path fill="#EE903F" opacity="1.000000" stroke="none" 
	d="
M41.734680,119.113983 
	C41.529675,113.302071 43.625656,110.716904 47.823544,111.023201 
	C51.097118,111.262054 53.875462,114.733879 52.838535,118.077339 
	C52.278709,119.882439 50.245079,122.634171 49.055138,122.545998 
	C46.626881,122.366074 44.319576,120.553772 41.734680,119.113983 
M50.825523,118.111450 
	C49.652473,116.427948 48.568672,114.661659 47.186733,113.171928 
	C47.024765,112.997330 44.372902,114.312790 44.345711,114.996010 
	C44.280285,116.639671 44.604649,119.049774 45.687138,119.764679 
	C46.656670,120.404991 48.849110,119.193642 50.825523,118.111450 
z"/>
<path fill="#F1AC49" opacity="1.000000" stroke="none" 
	d="
M50.663765,118.455338 
	C48.849110,119.193642 46.656670,120.404991 45.687138,119.764679 
	C44.604649,119.049774 44.280285,116.639671 44.345711,114.996010 
	C44.372902,114.312790 47.024765,112.997330 47.186733,113.171928 
	C48.568672,114.661659 49.652473,116.427948 50.663765,118.455338 
z"/>
</svg>